<svg xmlns="http://www.w3.org/2000/svg" id="Camada_2" data-name="Camada 2" viewBox="0 0 1095.71 525.9"><g id="Camada_1-2" data-name="Camada 1"><path d="M180.59,349.19c-2.2-33.86-4.41-67.72-6.61-101.58-.38-5.84-9.53-5.88-9.14,0,2.2,33.86,4.41,67.72,6.61,101.58,.38,5.84,9.53,5.88,9.14,0Z"></path><path d="M275.02,209.07c-7.61-27.45-26.75-48.42-49.12-65.12-23.54-17.57-50.23-32.3-78.53-40.51-26.41-7.67-54.84-9.22-81.24-.72-23.24,7.48-44.73,22.03-57.89,42.89-3.23,5.12-5.8,10.57-7.93,16.22-2.07,5.51,6.76,7.9,8.82,2.43,8.12-21.58,25.8-37.83,46.34-47.58,22.32-10.59,47.55-12.81,71.72-8.57,27.53,4.83,53.22,16.89,76.67,31.79,21.41,13.6,42.54,29.99,54.8,52.71,13.18,24.42,13.45,53.43,8.64,80.14-4.75,26.39-13.7,52.34-24.85,76.68-21.53,47.01-54.06,92.26-97.71,121.03-10.78,7.11-22.31,13.17-34.54,17.38-12.08,4.17-25.8,7.6-38.66,6.3-12.18-1.23-21.13-9.6-25.29-20.84-4.72-12.75-2.82-26.31,1.08-39.02,2.17-7.07,4.93-13.94,7.7-20.79,2.2-5.45-6.64-7.83-8.82-2.43-10.18,25.21-20.1,56.02-.34,79.43,18.37,21.76,53.26,12.13,75.69,2.74,51.78-21.67,91.55-69.09,117.86-117.36,13.71-25.15,24.51-52.1,31.95-79.76,7.55-28.07,11.53-58.59,3.64-87.04Z"></path><path d="M745.84,92.03c-32.38-18.26-72-18.66-107.77-12.76-10.29,1.7-20.37,4.63-30.69,6.1-10.31,1.47-21.4,.79-29.14-6.98-6.86-6.89-6.5-16.12,.38-22.79,6.81-6.6,16.53-10.14,25.16-13.65,38.49-15.66,82.5-26.44,123.81-16.31,9.79,2.4,19.16,5.99,28.04,10.76,5.18,2.78,9.81-5.11,4.61-7.89-36.33-19.51-78.7-18.76-117.81-8.97-19.64,4.92-39.77,11.63-57.78,20.97-7.19,3.73-14.53,8.83-18.24,16.27-3.73,7.48-3.14,16.26,1.45,23.24,12.37,18.83,35.77,15.87,54.77,11.63,18.02-4.02,36.24-6.67,54.74-6.58,35.72,.18,73.45,11.34,93.9,42.73,21.22,32.58,19.3,74.88,5.03,109.72-15.7,38.33-44.84,70.31-74.27,98.72-58.9,56.89-130.21,100.96-207.45,128.14-17.68,6.22-35.77,12.27-54.38,14.91-5.26,.75-10.7,1.26-16.16,1.38,7.1-34.64,8.53-70.26,9.6-105.86,9.76-23.05,20.47-45.68,32.12-67.84,4.07-7.75,8.26-15.43,12.56-23.05,1.65,10.21,7.57,19.23,17.61,23.03,1.76,.67,4.34-.42,5.16-2.1,9.89-20.15,18.02-41.09,24.28-62.6,2.45,9.03,6.57,17.61,12.22,25.18,2.13,2.86,5.78,2.98,7.89,0,4.47-6.31,8.33-12.96,11.64-19.9,1.87,4.52,4.74,8.65,8.59,12.1,1.17,1.05,2.87,1.73,4.45,1.18,12-4.2,17.76-15.25,21.96-26.49,3.73-9.98,6-23.15,14.18-30.67,12.63-11.61,26.6,5.07,34.66,13.85,5.06,5.51,10.25,10.79,17.07,14.1,6.3,3.06,13.17,4.76,20.17,5.02,15.48,.56,30.97-6.73,36.02-22.13,1.84-5.6-6.99-8-8.82-2.43-4.13,12.59-18.36,16.58-30.36,15.19-6.49-.75-13-3.11-18.25-7.03-6.24-4.65-11-11.26-16.43-16.78-9.58-9.72-23.45-17.5-36.59-9.31-9.61,5.99-13.53,17.78-17.03,27.91-3.36,9.75-6.74,23.76-16.74,28.96-4.82-5.4-7.35-12.57-6.28-19.91,.83-5.7-6.93-8.16-8.82-2.43-3.29,9.98-7.8,19.4-13.38,28.23-7.7-12.87-10.92-27.7-9.2-42.83,.58-5.11-7.91-6.22-8.98-1.22-6.15,28.86-15.6,56.89-28.29,83.52-6.05-4.28-8.51-12.74-8.01-19.92,.39-5.57,2.32-10.85,4.89-15.85,2.9-4.8,5.84-9.58,8.82-14.33,3.15-5.01-4.67-9.49-7.89-4.61-2.77,4.18-5.63,8.57-8.11,13.16-18.66,30.85-35.51,62.78-50.37,95.63,.49-14.62,1.12-29.21,2.27-43.68,.13-1.66,.28-3.31,.43-4.97,1.68-3.33,3.16-6.72,4.53-9.95,5.64-13.33,9.02-27.31,10.41-41.7,.3-3.09-3.15-5.03-5.79-4.41-6.82,1.61-10.5,7.52-12.43,13.85-2.52,8.24-3.14,17.33-4.18,25.85-.57,4.69-1.06,9.38-1.49,14.09-2.25,4.06-4.88,7.83-8.06,10.91-2.8,2.71-7.1,6.04-11.28,4.81-4.7-1.38-6.11-7.62-7.19-11.73-2.78-10.55-3.43-21.6-1.99-32.41,.11-.73,.22-1.45,.32-2.18,.78-5.71-7.88-8.29-8.82-2.43-1.58,11.61-4.51,23-8.96,33.85-1.89,4.6-10.44,27.75-17.29,19.47-6.39-7.72-4.71-21.47-3.91-30.65,.06-.72,.16-1.44,.23-2.16,3.72-11.48,6.87-23.15,9.43-34.97,1.03-4.75-6.18-8.53-8.36-3.52-.16,.36-.31,.73-.46,1.09,0,0,0,0,0,0h0c-1.91,4.51-3.58,9.1-4.99,13.75-.69-.65-1.6-1.11-2.74-1.24-33.28-3.92-66.3,23.1-68.72,56.57-1.26,17.48,7.73,36.57,26.68,39,21.25,2.72,29.18-20.54,36.06-36.24,1.36-3.11,2.68-6.23,3.95-9.37,1.08,6.46,3.53,12.49,8.76,16.4,12.28,9.17,21.2-6.61,25.77-15.87,1.84-3.73,3.51-7.54,5.01-11.41,.6,2.85,1.34,5.68,2.25,8.45,3.76,11.39,13.55,18.69,25.3,12.71,2.87-1.46,5.4-3.38,7.66-5.61-.56,8.78-.98,17.57-1.31,26.36-.38,9.93-.64,19.87-.93,29.82-6.14,14.59-11.91,29.33-17.29,44.21-6.61,18.32-13.77,37.01-16.43,56.41-.05,.38-.1,.76-.15,1.13-13.01-6.12-23.12-18.18-23.75-32.96-.61-14.35,6.24-29.05,17.53-37.94,5.51-4.34,12.17-7.12,19.18-7.66,5.83-.45,5.88-9.59,0-9.14-30.63,2.35-52.72,36.68-44.06,65.86,4.8,16.18,16.34,25.89,30.37,31.22-.41,14.95,3.1,29.86,14.55,40.53,2.67,2.48,6.43,1.21,7.64-2.02,4.08-10.88,7.33-21.9,9.95-33.04,6.64,.07,13.18-.39,19.29-1.24,19.07-2.64,37.54-8.72,55.64-15.09,19.39-6.82,38.43-14.69,57-23.51,37.71-17.92,73.41-39.94,106.44-65.47,33.09-25.58,64.32-54.67,90.35-87.5,25.23-31.82,45.35-69.49,45.5-111.03,.13-37.87-16.71-74.63-50.45-93.66Zm-393.61,193.01c-1.81,5.58-3.75,11.13-5.84,16.61-3.23,8.49-6.81,16.84-10.71,25.04-3.25,6.82-6.7,17.06-13.92,20.67-6.13,3.07-14,.94-18.98-3.36-5.92-5.12-8.25-13.43-8.4-21-.28-14.35,6.57-27.76,16.96-37.39,11.53-10.68,27.07-16.22,42.73-14.38,.21,.02,.41,.03,.6,.03-1.07,4.53-1.89,9.12-2.44,13.77Zm63.29,136.1c2.62-7.3,5.34-14.57,8.15-21.8-.81,19.56-2.13,39.08-4.9,58.47-1.09,7.61-2.43,15.17-4.02,22.67-5.2-.36-10.34-1.18-15.31-2.58,.14-1.31,.3-2.61,.49-3.91,2.69-18.13,9.42-35.67,15.59-52.85Zm-9.46,91.31c-5.15-7.46-7.03-16.47-7.09-25.62,4.5,1.09,9.15,1.81,13.82,2.23-1.91,7.88-4.13,15.69-6.73,23.38Z"></path><path d="M851.96,175.4c.68-5.85-8.43-5.76-9.14,0-.29,2.3-.57,4.61-.86,6.91-.03,.26-.04,.51-.03,.75-1.18,10.13-2.35,20.27-3.53,30.4-1.15,9.91-2.56,20.52,3.33,29.29,3.26,4.86,11.19,.29,7.89-4.61-5.47-8.14-2.71-19.22-1.66-28.3l4-34.44Z"></path><path d="M841.96,136.37v1.61c0,5.88,9.14,5.89,9.14,0v-1.61c0-5.88-9.14-5.89-9.14,0Z"></path><path d="M977.18,178.22c-.18-6.39-2.29-12.49-8.41-15.33-11.32-5.24-20.45,2.75-26.59,11.6-.51-7.79-.94-15.58-1.19-23.38-.77-24.28-.01-48.74,4.35-72.68,4.62-25.34,13.1-49.88,26.97-71.68,3.17-4.98-4.74-9.57-7.89-4.61-31.33,49.22-35.09,109.3-31.79,166.01,.14,2.46,.3,4.92,.46,7.39-4.75,10.31-9.51,20.63-14.26,30.94-1.5,3.25-3.36,9.83-7.45,10.59-4.97,.93-7.93-4.82-8.93-8.7-1.79-6.99-1.85-14.81-1.03-22.29,6.39-12.21,12.5-24.56,18.28-37.08,.85-1.84,.84-4.04-.71-5.54-11.67-11.22-20.47,14.78-22.67,21.97-1.75,5.71-3.1,11.85-3.86,18.08-7.49,14.21-15.37,28.2-23.67,41.97-3.05,5.05,4.86,9.65,7.89,4.61,5.37-8.9,10.55-17.91,15.58-27,.28,2.37,.66,4.71,1.19,6.99,1.4,6.02,4.68,11.7,10.37,14.54,5.67,2.82,12.31,1.96,16.71-2.72,4.73-5.02,7.01-12.6,9.86-18.77l4.04-8.76c.53,6.67,1.12,13.34,1.82,19.98,.98,9.36,3.49,20.47,11.46,26.44,7.78,5.83,18.23,3.15,23.48-4.63,6.22-9.2,5.61-21.35,5.73-31.92,.1-8.65,.51-17.35,.26-26Zm-9.26,13.23c-.08,6.69-.14,13.38-.23,20.06-.09,6.74-.16,17.94-6.58,22.17-7.49,4.94-12.45-5.33-14.09-11.01-2.95-10.24-2.82-21.59-3.67-32.15-.1-1.29-.2-2.57-.3-3.86,1.39,.01,2.78-.64,3.68-2.23,2.52-4.45,5.23-9.79,9.83-12.45,3.58-2.07,9.29-2.4,10.97,2.2,1.83,5,.45,12,.39,17.26Z"></path><path d="M1019.3,162.25c-4.82,5.16-8.68,11-11.56,17.23-1.15-1.86-2.39-3.67-3.73-5.41-4.46-5.82-15.81-19.81-24.34-14.74-8.45,5.02,2.39,14.52,6.96,10.1,.2,.15,.41,.29,.61,.44,1.02,.8,2,1.66,2.96,2.54,2.23,2.04,4.32,4.26,6.19,6.64,2.88,3.66,5.33,7.73,7.25,12-3.62,14.25-2.58,29.62,3.47,43.5,1.65,3.79,7.35,2.36,8.36-1.09,4.13-14.17,3.14-29.43-2.22-43.04,2.52-8.03,6.75-15.52,12.53-21.71,4.01-4.3-2.44-10.78-6.47-6.46Z"></path><path d="M1088.88,206.44c-11.21,6.52-29.99,16.87-40.76,3.64-10.93-13.42,11.78-24.9,20.54-30.42,10.57-6.66,19.93-17,16.82-30.46-1.28-5.56-5.16-10.12-10.6-11.96-7.57-2.56-15.49,1-22.15,4.41-5.24,2.68-.62,10.57,4.61,7.89,5.59-2.85,16.2-7.7,19.05,1.06,1.89,5.79-1.04,11.82-5.16,15.78-10.36,9.98-25.84,13.19-32.51,27.1-5.86,12.22,.67,24.83,12.67,29.79,14.69,6.07,29.47-1.59,42.1-8.93,5.08-2.96,.49-10.86-4.61-7.89Z"></path></g></svg>