<svg xmlns="http://www.w3.org/2000/svg" id="Camada_2" data-name="Camada 2" viewBox="0 0 368.67 102.79"><defs><style> .cls-1 { fill: #fff; stroke-width: 0px; } </style></defs><g id="Camada_1-2" data-name="Camada 1"><g><g><g><g><path class="cls-1" d="m23.81,27.88h8.92v13.43c2.17-1.71,5.51-3.03,9.24-3.03,10.4,0,16.61,7.45,16.61,17.77,0,11.49-7.68,18.86-19.94,18.86-5.74,0-11.64-1.86-14.82-3.88V27.88Zm8.92,22.13v14.82c1.94,1.24,3.88,1.79,6.36,1.79,5.59,0,9.93-3.65,9.93-9.93,0-6.67-4.11-10.01-9.16-10.01-3.1,0-5.67,1.63-7.14,3.34Z"></path><path class="cls-1" d="m61.55,27.88h8.92v32.91c0,3.96.93,5.67,3.03,5.67,1.4,0,2.56-.62,3.65-1.4l1.86,6.83c-2.02,1.63-5.04,2.95-9.23,2.95-5.36,0-8.23-3.26-8.23-10.4V27.88Z"></path><path class="cls-1" d="m82.94,41.62c3.03-1.79,7.76-3.34,12.34-3.34,10.32,0,13.97,5.28,13.97,14.51v21.26h-7.76v-4.04c-1.86,2.64-5.59,4.5-10.32,4.5-6.36,0-10.94-3.96-10.94-10.71,0-7.68,5.67-11.33,12.73-11.33,3.1,0,6.21,1.01,7.92,2.25.23-5.82-1.32-9-6.52-9-4.04,0-6.6,1.24-9.16,2.41l-2.25-6.52Zm17.93,22.2v-3.57c-1.55-1.16-3.57-1.71-6.13-1.71-2.95,0-5.59,1.4-5.59,4.35,0,2.64,2.17,4.11,4.97,4.11,3.73,0,5.67-1.63,6.75-3.18Z"></path><path class="cls-1" d="m145.36,68.86c-2.95,3.96-8.23,6.05-13.89,6.05-11.33,0-18.94-7.29-18.94-18.31,0-10.17,7.45-18.32,18.08-18.32,5.74,0,10.79,1.47,14.05,4.73l-4.19,7.06c-2.64-2.56-5.51-3.41-8.69-3.41-4.97,0-9.7,3.8-9.7,9.93s4.81,10.01,10.09,10.01c3.8,0,6.75-1.79,9-4.27l4.19,6.52Z"></path><path class="cls-1" d="m147.6,27.88h8.92v46.18h-8.92V27.88Zm19.71,27.25l14.67,18.94h-11.49l-13.81-18.24,12.49-16.69h11.25l-13.12,15.99Z"></path></g><path class="cls-1" d="m204.64,74.14h-6.6l-16.06-35.08h10.63l6.44,14.98c.93,2.09,2.02,5.2,2.64,7.92.62-2.64,1.63-5.82,2.56-8.07l6.05-14.82h9.39l-15.06,35.08Z"></path><path class="cls-1" d="m222.68,39.06h8.92v34.92h-8.92v-34.92Z"></path><path class="cls-1" d="m235.31,27.88h8.92v11.19h11.25v8.38h-11.25v12.73c0,3.8,1.24,6.29,4.19,6.29,2.41,0,4.11-1.09,5.35-2.02l2.72,6.91c-2.09,1.71-5.82,3.42-10.32,3.42-7.92,0-10.87-5.12-10.87-14.05V27.88Z"></path><path class="cls-1" d="m259.21,41.55c3.03-1.79,7.76-3.34,12.34-3.34,10.32,0,13.97,5.28,13.97,14.51v21.26h-7.76v-4.04c-1.86,2.64-5.59,4.5-10.32,4.5-6.36,0-10.94-3.96-10.94-10.71,0-7.68,5.67-11.33,12.73-11.33,3.1,0,6.21,1.01,7.92,2.25.23-5.82-1.32-9-6.52-9-4.04,0-6.6,1.24-9.16,2.41l-2.25-6.52Zm17.93,22.2v-3.57c-1.55-1.16-3.57-1.71-6.13-1.71-2.95,0-5.59,1.4-5.59,4.35,0,2.64,2.17,4.11,4.97,4.11,3.73,0,5.67-1.63,6.75-3.18Z"></path></g><g><path class="cls-1" d="m327.53,28.95c-7.99,6.79-8.97,18.78-2.17,26.78,8-6.8,8.97-18.79,2.17-26.78Z"></path><path class="cls-1" d="m326.3,56.93c4.71,5.54,13.02,6.22,18.56,1.51-4.71-5.54-13.02-6.22-18.56-1.51Z"></path><path class="cls-1" d="m341.85,44.07c-5.16-.76-9.95,2.8-10.71,7.96,5.16.76,9.95-2.8,10.71-7.96Z"></path><path class="cls-1" d="m318.07,43.22c-9.88-3.53-20.75,1.62-24.28,11.5,9.88,3.53,20.75-1.62,24.28-11.5Z"></path><path class="cls-1" d="m318.64,41.8c2.44-6.85-1.13-14.38-7.97-16.83-2.44,6.85,1.12,14.39,7.97,16.83Z"></path><path class="cls-1" d="m310.47,39.76c-2.13-4.76-7.71-6.88-12.47-4.75,2.13,4.76,7.72,6.88,12.47,4.75Z"></path><path class="cls-1" d="m308.65,34.43c.66-4.01-2.06-7.8-6.07-8.46-.66,4.01,2.06,7.8,6.07,8.46Z"></path><path class="cls-1" d="m310.89,55.78c1.88,10.32,11.77,17.17,22.09,15.3-1.88-10.32-11.77-17.17-22.09-15.3Z"></path><path class="cls-1" d="m298.78,71.31c7.16-1.3,11.9-8.16,10.6-15.31-7.16,1.3-11.9,8.16-10.6,15.31Z"></path><path class="cls-1" d="m311.69,64.1c-3.06,4.23-2.11,10.12,2.11,13.18,3.06-4.22,2.11-10.12-2.11-13.18Z"></path><path class="cls-1" d="m303.68,77.82c3.81-1.43,5.73-5.68,4.3-9.49-3.81,1.43-5.73,5.68-4.3,9.49Z"></path></g></g><path class="cls-1" d="m345.66,102.79H23.01c-12.69,0-23.01-10.32-23.01-23.01V23.01C0,10.32,10.32,0,23.01,0h322.65c12.69,0,23.01,10.32,23.01,23.01v56.77c0,12.69-10.32,23.01-23.01,23.01ZM23.01,8c-8.28,0-15.01,6.73-15.01,15.01v56.77c0,8.28,6.73,15.01,15.01,15.01h322.65c8.28,0,15.01-6.73,15.01-15.01V23.01c0-8.28-6.73-15.01-15.01-15.01H23.01Z"></path></g></g></svg>