<svg xmlns="http://www.w3.org/2000/svg" id="Camada_2" data-name="Camada 2" viewBox="0 0 453 84.98"><defs><style> .cls-1 { fill: #fff; } </style></defs><g id="Camada_1-2" data-name="Camada 1"><g><path class="cls-1" d="M32.55,61.16L52.02,9.07c2.04-5.45,7.25-9.07,13.07-9.07h0L32.55,84.98,0,0H0C5.82,0,11.03,3.61,13.07,9.07l19.48,52.09Z"></path><path class="cls-1" d="M68.64,80.2h-8.51V38.72c0-4.7,3.81-8.51,8.51-8.51h0v49.99Z"></path><path class="cls-1" d="M82.58,80.2h0V38.08h-5.21v-7.87h5.21V12.23h8.51V30.21h8.93v7.87h-8.93v33.61c0,4.7-3.81,8.51-8.51,8.51Z"></path><path class="cls-1" d="M178.63,41.8c-1.17-2.66-3.72-5.1-6.81-5.1s-6.17,2.34-6.17,5.53c0,4.57,5.74,6.28,11.59,8.72,5.85,2.45,11.59,5.96,11.59,14.36,0,9.47-7.66,16.27-16.91,16.27-8.4,0-15-4.79-17.66-12.66l.29-.12c3.68-1.56,7.82-.52,10.65,2.3,1.66,1.66,3.81,2.63,6.93,2.61,4.34-.03,8.06-3.5,7.97-7.84-.24-10.95-22.55-7.25-22.55-22.9,0-8.4,6.81-14.15,14.89-14.15,5.74,0,11.06,4.04,13.3,9.25l-7.13,3.72Z"></path><path class="cls-1" d="M235.85,45.1h-.21c-3.93-5-8.83-8.4-15.53-8.4-10.32,0-17.66,8.51-17.66,18.51s6.81,18.51,17.23,18.51c7.13,0,12.13-3.19,16.27-8.62h.21v11.38c-4.89,3.3-9.89,5.11-15.85,5.11-15.1,0-26.59-11.27-26.59-26.38s12.02-26.38,26.7-26.38c5.42,0,10.95,1.81,15.42,5v11.27Z"></path><path class="cls-1" d="M253.08,80.2h-8.51V38.72c0-4.7,3.81-8.51,8.51-8.51h0v49.99Z"></path><path class="cls-1" d="M272.51,57.01c-2.16,0-3.79,2.01-3.29,4.11,1.71,7.25,7.69,12.59,15.89,12.59,7.23,0,11.91-4.36,15.21-10.32l7.23,4.15c-4.79,8.93-12.87,14.04-23.08,14.04-14.89,0-24.46-11.38-24.46-25.74s8.62-27.02,24.25-27.02,24.57,13.29,23.72,28.19h-35.46Zm26.53-7.23c-1.17-7.23-7.23-13.08-14.68-13.08s-14.15,5.85-15.21,13.08h29.89Z"></path><path class="cls-1" d="M400.19,45.1h-.21c-3.93-5-8.83-8.4-15.53-8.4-10.32,0-17.66,8.51-17.66,18.51s6.81,18.51,17.23,18.51c7.13,0,12.13-3.19,16.27-8.62h.21v11.38c-4.89,3.3-9.89,5.11-15.85,5.11-15.1,0-26.59-11.27-26.59-26.38s12.02-26.38,26.7-26.38c5.42,0,10.95,1.81,15.42,5v11.27Z"></path><path class="cls-1" d="M417.44,57.01c-2.13,0-3.74,1.98-3.26,4.06,1.69,7.28,7.68,12.64,15.9,12.64,7.23,0,11.91-4.36,15.21-10.32l7.23,4.15c-4.79,8.93-12.87,14.04-23.08,14.04-14.89,0-24.46-11.38-24.46-25.74s8.62-27.02,24.25-27.02,24.57,13.29,23.72,28.19h-35.51Zm26.57-7.23c-1.17-7.23-7.23-13.08-14.68-13.08s-14.15,5.85-15.21,13.08h29.89Z"></path><path class="cls-1" d="M149.05,30.21c-4.33,0-7.9,3.23-8.44,7.42-.36-.46-.76-.93-1.2-1.39-4.11-4.65-9.89-7.41-16.21-7.41-15,0-24.04,12.23-24.04,26.48s9.25,26.27,23.93,26.27c7.02,0,12.87-2.77,17.23-8.3h.21v6.91h8.51V30.21h0Zm-24.78,43.5c-10.64,0-16.38-9.25-16.38-19.04s6.38-17.97,16.27-17.97c10.53,0,16.8,8.08,16.8,18.08s-5.74,18.93-16.7,18.93Z"></path><path class="cls-1" d="M336.26,28.82h0s-.64-.04-1.71,.07c-.26,.02-.52,.05-.77,.08l-.03,.02c-1.62,.25-3.87,.82-6.26,2.12-4.66,2.54-5.77,6.51-5.77,6.51-1.3-7.61-8.44-7.42-8.44-7.42l.02,.07h-.02s0,49.92,0,49.92h8.51v-23.72c0-8.93-.41-19.78,12.44-19.78,9.89,0,10.53,7.23,10.53,15.32v28.19h8.51v-29.67c0-11.7-3.19-21.7-17.02-21.7Z"></path></g></g></svg>